<?xml version="1.0" encoding="UTF-8" standalone="no"?>
<!DOCTYPE svg PUBLIC "-//W3C//DTD SVG 1.1//EN" "http://www.w3.org/Graphics/SVG/1.1/DTD/svg11.dtd">
<svg width="100%" height="100%" viewBox="0 0 120 120" version="1.1" xmlns="http://www.w3.org/2000/svg" xmlns:xlink="http://www.w3.org/1999/xlink" xml:space="preserve" xmlns:serif="http://www.serif.com/" style="fill-rule:evenodd;clip-rule:evenodd;stroke-linejoin:round;stroke-miterlimit:2;">
    <g transform="matrix(0.141175,0,0,0.141175,-457.224,9.09107)">
        <path d="M3390.7,675.102L3344.35,675.104L3344.35,700.592L3514.09,700.594L3514.09,675.106L3448.27,675.106C3437.61,674.094 3433.56,670.322 3433.05,661.688C3432.81,657.617 3434.3,651.405 3438.77,633.78L3585.14,80.52L3585.16,80.5L3643.07,300.6L3803.07,300.6L3688.93,474.82L3741.63,675.11L3653.07,675.11L3653.07,700.598L3978.1,700.598L3978.1,675.11L3915.94,675.101L3862.66,484.381L3983.07,300.591L3811.31,300.591L3733.07,20.591L3573.07,20.591L3415.86,619.811C3407.03,657.098 3406.2,658.164 3400.27,666.684C3397.32,670.382 3394.37,673.057 3390.7,675.102Z" style="fill:rgb(136,44,69);fill-rule:nonzero;"/>
    </g>
</svg>
